<?xml version="1.0" encoding="UTF-8" standalone="no"?>
<svg
   xmlns:dc="http://purl.org/dc/elements/1.1/"
   xmlns:cc="http://creativecommons.org/ns#"
   xmlns:rdf="http://www.w3.org/1999/02/22-rdf-syntax-ns#"
   xmlns:svg="http://www.w3.org/2000/svg"
   xmlns="http://www.w3.org/2000/svg"
   xmlns:sodipodi="http://sodipodi.sourceforge.net/DTD/sodipodi-0.dtd"
   xmlns:inkscape="http://www.inkscape.org/namespaces/inkscape"
   width="62.433159mm"
   height="62.433159mm"
   viewBox="0 0 62.433159 62.433157"
   version="1.1"
   id="svg8"
   inkscape:version="1.0.1 (0767f8302a, 2020-10-17)"
   sodipodi:docname="mirlo_bird.svg">
  <defs
     id="defs2" />
  <sodipodi:namedview
     id="base"
     pagecolor="#ffffff"
     bordercolor="#666666"
     borderopacity="1.0"
     inkscape:pageopacity="0.0"
     inkscape:pageshadow="2"
     inkscape:zoom="32.664467"
     inkscape:cx="58.787337"
     inkscape:cy="127.55826"
     inkscape:document-units="mm"
     inkscape:current-layer="g1228"
     inkscape:document-rotation="0"
     showgrid="false"
     inkscape:window-width="1920"
     inkscape:window-height="1043"
     inkscape:window-x="0"
     inkscape:window-y="0"
     inkscape:window-maximized="1" />
  <metadata
     id="metadata5">
    <rdf:RDF>
      <cc:Work
         rdf:about="">
        <dc:format>image/svg+xml</dc:format>
        <dc:type
           rdf:resource="http://purl.org/dc/dcmitype/StillImage" />
        <dc:title></dc:title>
      </cc:Work>
    </rdf:RDF>
  </metadata>
  <g
     inkscape:label="Layer 1"
     inkscape:groupmode="layer"
     id="layer1"
     transform="translate(-3.8924291,-254.67966)">
    <g
       id="g1228"
       inkscape:export-xdpi="6.5100002"
       inkscape:export-ydpi="6.5100002"
       style="opacity:1">
      <circle
         style="fill:#ffffff;fill-opacity:1;stroke:#000000;stroke-width:1.38049;stroke-miterlimit:4;stroke-dasharray:none;stroke-opacity:1;stop-color:#000000"
         id="path1220"
         cx="35.109009"
         cy="285.89624"
         r="30.526335"
         inkscape:export-xdpi="6.5100002"
         inkscape:export-ydpi="6.5100002" />
      <path
         id="path1070"
         style="fill:#000000;stroke-width:0.999999"
         d="m 731.7832,621.90625 c -1.32971,0.0183 -2.7501,0.16168 -4.33593,0.35937 -4.05416,0.50593 -44.54896,14.73256 -45.96485,16.14844 -0.28945,0.28933 2.26286,0.52735 5.67188,0.52735 18.56228,0 36.26974,13.68378 47.0664,36.37304 4.74846,9.97894 10.34168,25.75991 9.42188,26.58203 -0.7424,0.66361 -15.27824,1.49573 -64.94336,3.6875 0.11563,0.3719 0.21814,0.74837 0.28711,1.13868 0.22394,1.26716 -0.31358,2.59155 -0.66016,3.7832 -0.15541,1.2294 0.15753,2.41301 0.23047,3.62695 0.0277,0.44956 0.0251,0.72119 0.0156,1.0293 0.17334,0.41928 0.24407,0.7826 0.25976,1.14453 0.0114,0.035 0.0291,0.068 0.0391,0.10352 0.1532,0.54588 0.2075,0.79937 0.29102,1.14062 l 3.86914,0.0898 c 22.96183,-0.87276 41.87933,-1.10689 60.73633,-2.56799 4.09514,-0.60908 7.6241,-0.96706 10.78711,-1.02735 0.59306,-0.0113 1.17357,-0.0118 1.74219,-0.002 8.52903,0.14721 14.45558,2.70203 22.21679,8.63672 6.37684,4.87608 10.87792,6.77706 21.17774,8.9414 5.21356,1.09554 6.88998,3.79453 3.88867,6.25977 -1.49475,1.22776 -4.07885,1.73616 -11.41406,2.1582 0.16877,0.46837 0.33738,0.93705 0.51171,1.40235 0.25927,0.4986 0.52078,0.98343 0.85352,1.63476 0.23166,0.49205 0.45493,0.98695 0.68164,1.48047 4.75351,0.92323 7.99714,2.54483 11.83399,5.32422 5.178,3.75107 6.36652,7.04641 6.57031,18.20898 0.13674,7.49035 0.46523,9.34961 1.64453,9.34961 1.84002,0 2.79933,-5.17238 3.78711,-20.41015 l 0.74023,-11.41211 6.18555,-1.74219 c 3.38516,-0.95317 6.61389,-1.69234 9.7168,-2.26172 -0.0546,-0.1143 -0.11257,-0.22703 -0.16602,-0.3418 -0.24884,-0.53431 -0.47635,-1.07811 -0.71484,-1.61718 -0.17493,-0.47149 -0.25082,-0.67415 -0.34375,-0.92383 l -13.00391,0.4043 -1.49023,-2.34766 c -0.81879,-1.29105 -1.81092,-3.92071 -2.20704,-5.8457 -0.3959,-1.92499 -1.56673,-5.17034 -2.5996,-7.21094 -3.57538,-7.06364 -1.93839,-10.72613 5.62304,-12.58789 3.02898,-0.74577 17.34812,-1.98239 28.51172,-2.66016 -0.35012,-1.24893 -0.67679,-2.50301 -0.92969,-3.7793 -0.34488,-1.73989 -0.36723,-2.23935 -0.58984,-3.99218 -0.0922,-0.7256 -0.18752,-1.45042 -0.28125,-2.17578 -0.14156,-1.48876 -0.22367,-1.93739 -0.22852,-2.83789 -19.23972,1.39994 -32.15503,2.22952 -35.2207,2.2207 -4.85946,-0.0147 -8.59397,-0.62513 -11.28516,-1.84766 -6.44372,-2.92724 -8.00234,-4.74394 -28.47656,-33.15234 -25.37524,-35.2087 -30.1979,-41.13978 -39.50586,-41.01172 z m -55.68554,83.79297 c -0.0412,0.002 -0.0854,0.004 -0.12891,0.006 -0.004,0.0194 -0.003,0.0159 -0.008,0.0391 0.0419,0.0559 0.0575,0.159 0.0351,0.2168 0.086,0.0641 0.12247,0.0878 0.25391,0.18554 -0.0505,-0.1492 -0.0966,-0.30001 -0.15234,-0.44726 z"
         sodipodi:nodetypes="ccsssscsccccccccscsssccccsssccccsccccssscsscccssccccccccc"
         transform="matrix(0.26458333,0,0,0.26458333,-164.22827,100.49043)" />
    </g>
  </g>
</svg>
